<?xml version="1.0" encoding="UTF-8"?>
<!DOCTYPE svg PUBLIC "-//W3C//DTD SVG 1.1//EN" "http://www.w3.org/Graphics/SVG/1.1/DTD/svg11.dtd">
<!-- Creator: CorelDRAW -->
<svg xmlns="http://www.w3.org/2000/svg" xml:space="preserve" width="46px" height="44px" version="1.1" style="shape-rendering:geometricPrecision; text-rendering:geometricPrecision; image-rendering:optimizeQuality; fill-rule:evenodd; clip-rule:evenodd"
viewBox="0 0 3.16 3.08"
 xmlns:xlink="http://www.w3.org/1999/xlink"
 xmlns:xodm="http://www.corel.com/coreldraw/odm/2003">
 <defs>
  <style type="text/css">
   <![CDATA[
    .fil0 {fill:white}
   ]]>
  </style>
 </defs>
 <g id="????_x0020_1">
  <metadata id="CorelCorpID_0Corel-Layer"/>
  <path class="fil0" d="M1.58 0c-0.87,0 -1.58,0.71 -1.58,1.58 0,0.7 0.45,1.29 1.08,1.5 0.08,0.01 0.11,-0.04 0.11,-0.08 0,-0.04 0,-0.14 0,-0.27 -0.44,0.1 -0.54,-0.21 -0.54,-0.21 -0.07,-0.18 -0.17,-0.23 -0.17,-0.23 -0.15,-0.1 0.01,-0.1 0.01,-0.1 0.16,0.02 0.24,0.17 0.24,0.17 0.14,0.24 0.37,0.17 0.46,0.13 0.01,-0.1 0.06,-0.17 0.1,-0.21 -0.35,-0.04 -0.72,-0.18 -0.72,-0.78 0,-0.18 0.06,-0.32 0.16,-0.43 -0.01,-0.04 -0.07,-0.2 0.02,-0.42 0,0 0.13,-0.04 0.43,0.17 0.13,-0.04 0.26,-0.06 0.4,-0.06 0.13,0 0.27,0.02 0.39,0.06 0.31,-0.21 0.44,-0.17 0.44,-0.17 0.08,0.22 0.03,0.38 0.01,0.42 0.1,0.11 0.17,0.25 0.17,0.43 0,0.6 -0.37,0.74 -0.72,0.78 0.05,0.04 0.1,0.14 0.1,0.29 0,0.21 0,0.38 0,0.43 0,0.04 0.03,0.09 0.11,0.08 0.63,-0.21 1.08,-0.8 1.08,-1.5 0,-0.87 -0.71,-1.58 -1.58,-1.58z"/>
 </g>
</svg>
