<?xml version="1.0" encoding="UTF-8"?>
<!DOCTYPE svg PUBLIC "-//W3C//DTD SVG 1.1//EN" "http://www.w3.org/Graphics/SVG/1.1/DTD/svg11.dtd">
<!-- Creator: CorelDRAW -->
<svg xmlns="http://www.w3.org/2000/svg" xml:space="preserve" width="1034px" height="1251px" version="1.1" style="shape-rendering:geometricPrecision; text-rendering:geometricPrecision; image-rendering:optimizeQuality; fill-rule:evenodd; clip-rule:evenodd"
viewBox="0 0 1034 1251.06"
 xmlns:xlink="http://www.w3.org/1999/xlink"
 xmlns:xodm="http://www.corel.com/coreldraw/odm/2003">
 <defs>
  <style type="text/css">
   <![CDATA[
    .fil1 {fill:#00C0FF}
    .fil0 {fill:#00C0FF;fill-rule:nonzero}
   ]]>
  </style>
 </defs>
 <g id="????_x0020_1">
  <metadata id="CorelCorpID_0Corel-Layer"/>
  <g>
   <path class="fil0" d="M329.48 468.8c-25.89,0 -46.88,20.99 -46.88,46.88 0,25.9 20.99,46.88 46.88,46.88 25.89,0 46.88,-20.98 46.88,-46.88 0,-25.89 -20.99,-46.88 -46.88,-46.88zm-328.16 219.69l0 46.88c0,284.35 231.33,515.69 515.68,515.69 284.35,0 515.68,-231.34 515.68,-515.69l0 -46.88 0 -172.81c0,-137.2 -53.43,-266.79 -150.44,-364.88 -0.12,-0.12 -0.24,-0.24 -0.37,-0.36 -62.3,-61.63 -137.33,-105.63 -218.93,-129.56l-92.27 -18.1c-17.72,-1.83 -35.63,-2.78 -53.67,-2.78 -18.5,0 -36.45,0.87 -53.72,2.61l-92.21 18.31c-216.68,63.63 -369.75,265.06 -369.75,494.76l0 172.81zm937.6 46.88c0,232.65 -189.27,421.93 -421.92,421.93 -232.65,0 -421.92,-189.28 -421.92,-421.93l0 -219.69c0,-228.72 184.96,-421.92 421.92,-421.92 233.62,0 421.92,188.22 421.92,421.92l0 219.69zm-234.4 -266.57c-25.89,0 -46.88,20.99 -46.88,46.88 0,25.9 20.99,46.88 46.88,46.88 25.89,0 46.88,-20.98 46.88,-46.88 0,-25.89 -20.99,-46.88 -46.88,-46.88z"/>
  </g>
  <path class="fil0" d="M704.38 839.39l-93.69 0c-20.06,0 -37.16,-12.7 -43.83,-30.46l76.96 -76.95c18.29,-18.3 18.29,-47.96 0,-66.25 -18.29,-18.3 -47.96,-18.3 -66.25,0l-60.57 60.56 -60.57 -60.56c-18.29,-18.3 -47.95,-18.3 -66.25,0 -18.29,18.29 -18.29,47.95 0,66.25l76.96 76.95c-6.67,17.76 -23.77,30.46 -43.83,30.46l-93.69 0c-25.87,0 -46.85,20.97 -46.85,46.84 0,25.88 20.98,46.85 46.85,46.85l46.84 0 0 140.54c0,25.87 20.98,46.84 46.85,46.84l187.38 0c25.87,0 46.85,-20.97 46.85,-46.84l0 -140.54 46.84 0c25.87,0 46.85,-20.97 46.85,-46.85 0,-25.87 -20.98,-46.84 -46.85,-46.84zm-140.53 187.38l-93.7 0 0 -101.75c17.45,-6.19 33.33,-15.72 46.85,-27.84 13.52,12.12 29.4,21.65 46.85,27.84l0 101.75z"/>
  <g>
   <path class="fil1" d="M52.4 62.2c69.88,-69.87 183.16,-69.87 253.03,0l-66.55 66.55c-33.12,-33.11 -86.81,-33.11 -119.92,0 -33.12,33.12 -33.12,86.81 0,119.92l-66.56 66.56c-69.87,-69.87 -69.87,-183.16 0,-253.03z"/>
   <path class="fil1" d="M981.6 62.2c-69.88,-69.87 -183.16,-69.87 -253.03,0l66.55 66.55c33.12,-33.11 86.81,-33.11 119.92,0 33.12,33.12 33.12,86.81 0,119.92l66.56 66.56c69.87,-69.87 69.87,-183.16 0,-253.03z"/>
  </g>
 </g>
</svg>
