<?xml version="1.0" encoding="UTF-8"?>
<!DOCTYPE svg PUBLIC "-//W3C//DTD SVG 1.1//EN" "http://www.w3.org/Graphics/SVG/1.1/DTD/svg11.dtd">
<!-- Creator: CorelDRAW -->
<svg xmlns="http://www.w3.org/2000/svg" xml:space="preserve" width="1575px" height="1600px" version="1.1" style="shape-rendering:geometricPrecision; text-rendering:geometricPrecision; image-rendering:optimizeQuality; fill-rule:evenodd; clip-rule:evenodd"
viewBox="0 0 1653.77 1679.92"
 xmlns:xlink="http://www.w3.org/1999/xlink"
 xmlns:xodm="http://www.corel.com/coreldraw/odm/2003">
 <defs>
  <style type="text/css">
   <![CDATA[
    .fil0 {fill:#FD7500}
   ]]>
  </style>
 </defs>
 <g id="????_x0020_1">
  <metadata id="CorelCorpID_0Corel-Layer"/>
  <path class="fil0" d="M696.25 1233.69l-0.56 -0.99c-0.82,-12.75 -3.4,-18.16 -6.56,-28.52 -0.33,-8.9 -1.55,-8.98 -3.28,-16.42l62.08 0 62.43 0 157.66 0c-2.22,9.53 -4.34,20 -6.56,29.53 -5.42,11.28 -5.61,21.14 -13.11,36.09 -0.37,9.18 -6.65,26.11 -9.86,32.81l-223.11 -0.99c-8.71,-15 -11.06,-37.65 -19.13,-51.51zm78.19 -954.7l-3.21 -3.38 -0.07 -0.01c-4.04,-12.12 -10.87,-31.66 -16.41,-42.1l-14.17 -35.02c-3.45,-7.21 -9.11,-19.76 -15.36,-24.6l-7.6 -15.59c-6.2,-11.02 -18.46,-28.18 -25.21,-30.34 -4.02,-9.87 0.32,-3.67 -7.31,-12.6 -1.83,-2.15 -5.68,-5.33 -8.28,-7.9 -7.73,-7.66 -8.87,-10.35 -18.23,-15.58l-10.48 -13.12c-7.79,-4.98 -9.34,-6.53 -16.16,-11.79 -10.09,-7.78 -8.15,-9.32 -18.29,-9.55 -10.8,-19.68 -87.79,-47.22 -106.63,-47.57 -4.15,-3.85 7.63,-0.38 -9.82,-4.83 -8.03,-2.04 -6.83,-0.95 -14.65,-1.87 -10.64,-1.26 -14.42,-3.14 -26.95,-3.14l-29.71 0c-5.82,0.62 -11.3,2.09 -16.96,5.26 -12.8,7.17 -18.99,14.32 -21.67,30.06 -3.4,2.76 -2.38,-7.9 -3.52,10.2 -0.35,5.49 0.24,14.19 0.24,20.1l3.28 0.02 3.37 13.06c14.13,7.57 10.1,15.34 34.85,19.73 27.13,0 51.61,4.16 73.33,12.02 46.85,12.11 77.85,41.75 86.22,45.83 8.06,3.93 -3.06,0.83 5.65,1.48 4.16,9.91 -1.03,1.72 5.72,10.49 1.62,2.11 4.32,4.36 6.59,6.57 5.37,5.22 9.15,9.05 13.94,13.72 0,6.46 -1.72,5.05 4.37,5.05l1.13 3.28c4.95,6.85 7.49,11.13 12.25,18.35 4.83,7.32 6.89,11.97 11.78,18.28 2.24,8.83 3.62,9.87 7.7,17.96 5.14,10.18 5.45,13.45 8.71,24.14 3.69,3.29 1.23,0.51 3.75,6.02 1.26,2.74 2.22,5.32 3.77,9.31 3.97,10.21 2.99,9.9 8.89,19.13 0.85,8.1 1.58,7.49 3.28,14.77 -10.54,7.05 -23.05,12.53 -29.53,23.78 -10.59,4.04 -12.71,5.28 -20.28,15 -3.32,4.26 -3.14,4.61 -6.92,9.33l-8.9 13.23c-8.1,6.64 -12.68,16.03 -16.4,27.23 -6,4.64 -6.97,12.63 -9.44,20.1 -3.42,10.34 -6.65,15.42 -6.97,28.32 -4.6,13.65 -3.35,18.5 -3.3,33.62 0.06,13.35 -2.35,27.42 3.51,36.1 -0.34,13.66 -1.32,8.38 3.07,19.67 0.91,6.31 4.3,15.02 6.04,20.16 1.37,4.06 1.84,6.56 3.5,9.5 9.19,16.31 -0.8,2.62 9.48,9.73 -1.06,8.48 -1.77,3.71 2.32,11.28 2.91,5.38 3.48,4.98 6.8,9.8 5.24,7.58 6.93,11 14.52,15.03 4.09,10.06 0.14,5.81 8.88,14.22 6.1,5.85 6.89,4.42 14.09,10.4l-37.03 36.77c-5.49,2.49 -59.12,10.63 -67.95,10.77 -15.92,7.08 -160.85,28.1 -168.68,36.1l-5.59 0 -8.25 0c-5.59,0 -4.52,-1.59 -4.52,3.37 -16.7,0.19 -22.22,6.05 -38.02,6.47 -5.74,0 -4.64,-1.63 -4.64,3.49l-8.39 -0.21c-5.85,0 -4.73,-1.66 -4.73,3.53 -3.15,-0.09 -3.85,-0.61 -6.39,0.04 -10.39,2.64 -2.15,-0.06 -7.47,2.99 -11.25,1.04 -24.6,5.52 -36.69,8.52 -15.67,3.88 -24.03,7.45 -38.04,11.17 -12.74,3.38 -21.7,6.63 -34.89,11.05 -18.59,6.23 -27,7.88 -34.01,18.46 -7.72,-1.87 -1.9,-1.79 -7.6,-0.69 -10.37,2.02 -0.86,-0.24 -8.86,3.78 -13.65,6.87 -33.86,16.69 -42.6,29.74 -12.33,8.26 -11.54,5.57 -21.06,18.31 -4.31,5.76 -4.63,5.52 -9.37,10.26 -8.37,8.36 -6.3,3.56 -8.95,15.39 -4.52,2.1 -1.64,-0.83 -6.66,5.12 -0.27,0.32 -5.83,8.96 -6.41,9.98 -4.83,8.42 -6.57,12.95 -9.89,22.95 -9.39,7.27 -11.53,25.31 -16.41,36.93 -1.13,12.11 -2.98,8.21 -3.28,23.13 -2.71,3.46 -1.33,-1.97 -2.85,6.11 -2.89,15.42 -6.68,49.45 -0.43,61.3l0 9.35c0.81,11.03 4.37,34.76 9.84,41.15 1.47,8.62 0.56,8.11 3.9,14.97 7.55,15.52 -0.87,3.04 9.21,10.51 -3.34,13.73 4.19,15.16 13.14,35.42 4.96,3.58 12.31,14.88 16.37,20.39 6.36,8.65 10.98,14.14 20.54,19.65 7.18,14.13 20.88,21.07 35.27,30.06l3.29 2.68c0,4.63 -1.1,3.35 3.74,3.35l38.26 19.69c22.8,4.85 22.61,8.72 60.99,15.13 54.43,9.08 111.17,-8.3 157.33,-33.7 8.65,-4.76 14.63,-10.43 21.85,-14.26 10.38,-7.85 17.56,-13.92 22.15,-22.95 13.72,-7.91 9.97,-9.61 19.7,-20.5 4.26,-4.77 5.02,-4.82 9.38,-10.49 4.09,-5.33 0.74,-3.93 7.83,-9.05 6,-10.89 7.54,-11.04 13.16,-19.02 4.71,-6.68 7.59,-12.29 13.09,-18.38 4.07,-7.66 2.98,-4.56 7.14,-10.67 2.69,-3.95 3.79,-6.25 6.11,-10.2 3.78,-6.45 8.05,-13.02 13,-18.5 4.05,-7.62 7.05,-11.26 11.79,-19.09 5.03,-8.34 3.98,-10.5 11.17,-15.7 0.43,-0.97 1.09,-3.43 1.35,-2.88l10.15 -22.7c5.63,-4.57 1.39,-0.06 5.74,-5.57 1.94,-2.46 3.81,-5.71 5.27,-8.05 5.01,-8.02 4.85,-6.21 7.03,-16.91 3.89,-2.05 1.55,0.73 5.19,-3.75 0.08,-0.1 3.51,-5.76 3.69,-6.1 3.79,-6.97 2.59,-7.86 7.52,-12.78l13.12 -25.91c0.52,-0.55 1.3,-2.16 1.49,-1.68l9.7 -16.34c3.82,-6.42 8.26,-14.7 11.78,-19.39 0,-12.97 5.01,-3.7 6.57,-1.64 5.07,7.59 10.25,12.06 17.17,18.91 4.82,4.78 5.43,4.69 10.58,8.98 8.89,7.38 5.72,0.8 8.34,13.41 -10.41,3.02 -36.55,31.16 -38.72,44.01 -15.09,14.89 -17.34,35.52 -26.91,55.92 -1.15,13.68 -6.24,11.58 -0.01,26.11 -12.73,5.33 -2.43,-2.94 -6.73,9.74 -0.67,1.98 -1.78,10.14 -1.93,11.12 -1.54,10.22 -1.17,17.74 -1.17,28.34l0 13.79 0 22.97c0,13 1.5,17.64 3.28,28.04 0,13.41 2.31,12.05 3.28,23.8 1.92,8.25 3.96,17.65 6.57,25.26 0.81,6.94 4.57,20.73 6.56,27.23 3.37,7.57 4.63,15.55 7.77,25.05 3.19,9.68 5.92,17.07 8.63,25.68l3.29 9.81c0,6.42 -1.77,5.09 4.13,5.09l11.01 30.9c0.25,0.45 0.81,1.41 1.26,2.08 1.32,5.51 -1.62,0.29 1.96,7.71 3.52,7.28 1.65,4.05 6.23,8.53 -0.04,9.46 1.57,12.31 4.93,21.32 4.28,5.69 3.47,5.72 6.02,11.92 1.94,4.72 -0.07,1.66 2.88,7.07 2.32,4.27 2.11,3.19 4.23,5.63 1.82,7.81 6.78,19.72 9.84,27.33 5.12,7.78 7.81,14.61 13.13,25.15 4.22,9.49 16.87,37.22 22.96,43.38 3.59,9.92 5.08,13.38 10.94,24.9 1.14,2.27 4.56,9.63 5.14,10.53 7.33,11.45 0.78,3.9 10.16,9.79l-3.78 6.29 7.07 3.56c3.09,13.26 12.32,29.32 19.69,38.55 4.44,9.63 5.99,10.35 10.93,19.43 5.92,10.9 2.93,10.53 12.04,17.81 4.66,19.05 20.61,29.92 38.01,32.48l16.22 0c17.67,-2.63 33.69,-13.95 37.64,-34.11 4.32,-2.01 1.72,1.26 6.53,-5.26 1.32,-1.77 4.22,-7.55 5.97,-10.44 4.87,-8.03 6.57,-11.46 10.47,-19.91 7.37,-9.23 16.59,-25.29 19.68,-38.55 7.49,-5.49 10.11,-11.45 13.13,-21.34l13.12 -26.25c6.29,-9.84 10.48,-16.51 13.13,-27.88l26.25 -47.04c2.91,-8.38 3.51,-12.31 7.63,-20.86 3.25,-6.78 5.94,-11.41 8.31,-17.29 3.56,-8.8 11.98,-31.72 16.87,-37.31 2.77,-15.66 11.62,-26.35 13.12,-39.38 4.87,-10.07 11.93,-25.77 13.13,-36.09 9.77,-20.21 12.13,-41.5 19.17,-61.65l0.02 0.01 0.01 0.02 0.01 0 0.01 0.01 0.01 0.01 0.02 0.02 0 0 0.02 0.01 0.01 0.01 0.02 0.01 0 0 0.02 0.02 0.01 0.01 0.01 0.01 0.01 0 0.01 0.01 0.02 0.02 0 0 0.02 0.01 0.01 0.01 0.02 0.01 0.01 0.02 0.02 0.01 0.01 0.01 0.01 0 0.01 0.01 0.02 0.02 0 0 0.01 0.01 0.02 0.01 0.01 0.01 0.01 0 0.01 0.01 0.02 0.02 0.01 0 0 0.01 0.02 0.01 0.02 0.01 0 0.01 0.01 0 0.02 0.02 0.01 0.01c2.06,-13.03 4.51,-19.75 6.56,-32.78 2.4,-16.74 6.57,-26.83 6.57,-47.83l0 -4.67 0 -19.05 0 -38.06 -16.41 -63.49c-0.93,-12.31 -13.2,-35.59 -19.71,-46.83l-9.82 -10.87c-5.25,-11.22 0.25,-5.26 -9.84,-12.02l-3.28 -5.65c0,-5.59 1.39,-4.19 -4.19,-4.19 -2.41,-1.96 -4.12,-2.53 -6.52,-5.62 -6.35,-8.16 -1.78,-1.22 -5.7,-10.24l3.2 -0.55 3.36 -3.33c7.17,-4.73 9.16,-7.51 15.61,-13.83 1.69,-1.66 5.69,-5.23 6.62,-6.32 7.59,-8.96 3.25,-2.63 7.3,-12.59l0.65 -0.02c6.61,4.56 3.61,1.11 8.2,7.62 0.02,0.03 4.21,8.65 4.28,8.78l3.02 3.29 10.1 16.73c0,10.85 -0.88,4.06 3.28,4.93l13.13 26.77c3.48,3.61 14.63,24.51 18.62,31.65 4.06,7.27 6.26,10.24 9.82,16.17 4.36,7.24 6.17,9.66 10.93,16.12 2.6,8.53 2.05,5.43 6.48,12.37 3.42,5.36 4.54,7.24 7.71,12.57 5.25,8.83 10.16,15.55 15.34,23.78l3.28 5.59c0,5.18 -1.32,3.94 3.77,3.94l2.79 5.43c0,5.78 -1.48,4.41 4.16,4.41 1.85,5.45 -2.52,0.79 2.41,4.97 0,6.42 -1.64,4.87 4.67,4.87 0.84,4.63 -1.65,2.13 1.89,4.77 0,6.48 -1.75,5.08 4.34,5.08l0.6 3.28 8.18 9.84c3.19,6.02 2.9,6.51 7.35,12.33 0.09,0.12 3.83,4.57 4.5,5.35l3.06 3.51c0.3,0.35 0.99,1.19 1.5,1.78 6.87,10.27 8.71,12.67 17.21,22.16 9.75,10.87 5.95,12.56 19.7,20.49 5.37,10.58 12.54,14.9 22.65,22.47 4.83,3.61 8.01,6.52 13.14,9.93 9,5.97 5.57,5.65 15.89,4.84 0,6.44 -1.94,5.38 3.28,5.47l3.48 3.23 3.08 0.11 3.71 3.17 2.85 0.56 3.16 2.72 13.25 2.9c0,5.21 -1.18,3.66 4.47,3.66l9.54 3.28c18.28,1.72 35.52,9.57 58.04,9.98 45.49,0.82 81.67,-4.6 120.45,-24.19l43.74 -25.18c10.08,-11.29 15.88,-10.63 22.15,-22.95 18,-10.38 23.83,-26.85 36.91,-41.35 4.14,-7.77 7.53,-11.07 9.84,-20.99 1.93,-2.22 2.02,-1.62 4.37,-5.47 2.02,-3.3 1.3,-1.81 3.36,-6.5 2.48,-5.65 4.01,-11.58 5.4,-17.23 0.43,-0.72 1.01,-2.7 1.16,-2.24l11.96 -49.77c1.08,-14.35 3.28,-20.45 3.28,-39.54l-6.56 -35.76c-0.23,-11.29 -2.78,-22.77 -6.56,-30.12 -3.72,-16.84 -10.2,-31.43 -19.69,-43.54l0 -6.05c-7.04,-5.45 -7.83,-13.42 -16.4,-19.71 -3.43,-12.81 -7.56,-11.05 -15.52,-20.57 -11.55,-13.79 -2.98,-9.49 -20.58,-18.8 -11.86,-17.72 -46.12,-34.01 -68.9,-44.09 -5.31,-2.16 -10.03,-3.67 -16.41,-5.57l-3.55 -2.84 -31.26 -9.84c-7.56,-3.3 -1.64,2.23 -6.21,-3.28 -13.63,-0.94 -146.84,-41.97 -179.33,-42.65 -8.33,-4.4 -3.15,-2.9 -15.89,-3.48l-4.35 -3.09 -12.05 -0.38 -4.13 -2.9c-8.8,-0.22 -11.03,-1 -16.98,-3.28l-129.82 -22.97c-14.32,-2.3 -30.52,-6.56 -45.94,-6.56 -2.75,-11.5 2.94,-1.13 -6.56,-11.69l-22.97 -21.7 -2.73 -2.7 2.56 -3.28c4.63,0 3.7,1.12 2.7,-3.42 5.38,0.18 4.04,1.48 4.04,-3.9l9.12 -9.09c5.33,0 4,1.34 4,-4 9.91,-12.69 15.04,-15.83 22.62,-32.09 5.33,0 3.63,1.15 3.63,-4.85 4.24,-5.74 5.61,-7.32 6.56,-16.74 6.1,-9.16 11.87,-23.89 13.13,-35.84 1.7,-9.07 3.28,-11.84 3.28,-22.96l0 -29.54c0,-16.77 -1.94,-17.34 -3.28,-28.98 -2.43,-6.97 -2.8,-11.84 -5.25,-20.12 -0.58,-1.94 -1.64,-5.52 -2.52,-7.17 -3.33,-6.21 -2.36,-3.71 -5.36,-5.41 -0.95,-14.78 -3.96,-18.16 -10.44,-27.94 -5.38,-8.12 -8.66,-15.14 -15.81,-20.07l-3.28 -6.92 -3.07 -3.14 -16.61 -16.6 -3.15 -3.08 -8.08 -3.28c-3.68,-8.2 -17.63,-14.85 -24.87,-19.69 1.7,-7.28 2.43,-6.67 3.28,-14.77 6.06,-9.49 6.68,-12.63 9.85,-22.97 6.53,-12.48 11.13,-25.89 16.4,-37.74 4.34,-8.6 6.43,-13.17 9.82,-19.8 3.3,-6.46 7.55,-11.61 9.87,-17.11 6.89,-12.23 22.8,-33.25 32.81,-38.56 8.8,-11.56 36.45,-37.49 49.22,-39.37 10.15,-7.2 14.52,-9.11 25.08,-14.27 10.01,-4.89 18.64,-6.69 27.41,-10.88 18.28,-4.06 35.46,-7.7 53.27,-10.16 11.93,-1.66 19.3,0.83 30,-2.81 11.55,-3.92 13.91,-7.02 18.45,-16 5.04,-2 0.26,3.63 6.65,-4.8 0.18,-0.23 4.31,-8.3 4.44,-8.7 3.1,-8.99 2.03,-13.03 2.03,-23.42 -2.29,-30.48 -23.18,-41.09 -47.2,-43.47l-25.46 0c-6.99,0.55 -13.81,1.44 -20.08,2.41 -27.87,4.3 -55.78,10.51 -80.05,21.66 -5.29,2.43 -7.6,3.18 -11.73,4.91 -13.55,5.7 -7.53,2.37 -9.08,7.11l-3.28 0 -6.09 2.68c-5.04,2.49 -2.49,1.22 -7.36,3.83 -4.12,2.2 -8.22,4.27 -12.13,6.62 -5.16,0 -3.93,-1.33 -3.93,3.71l-6.24 2.85c-4.72,0 -3.61,-1.22 -3.61,3.39 -6.72,4.36 -11.49,6.4 -16.59,13.01 -14.7,8.06 -16.87,12.12 -28.53,23.78 -5.12,5.13 -8.09,7.93 -13.11,13.12l-7.61 8.19c-0.43,0.49 -1.11,1.24 -1.51,1.73 -4.27,5.12 -1.68,1.68 -4.3,5.68 -5.11,0 -3.81,-1.27 -3.81,3.88 -6.51,8.58 -10.54,12.67 -15.72,22.37 -5.38,0 -3.97,-1.31 -3.97,4.2l-3.59 5.64 -2.97 3.14c-3.77,7.31 -6.44,12.83 -8.71,19.83 -6.16,0 -4.42,-1.43 -4.42,5.1 -5.91,7.5 -7.87,12.11 -9.84,23.6 -4.9,5.16 -3.42,4.77 -6.01,11.04 -9.08,21.92 -7.11,3.59 -7.11,25.87 -6.2,-0.99 -1.43,-2.37 -5.28,4.5 -0.58,1.04 -3,7.94 -3.61,9.47 -4.53,11.36 -5.4,11.99 -7.52,25.4 -6.43,3.2 1.23,-6.41 -3.66,3.25 -2.1,4.15 -1.49,3.82 -2.9,9.89l-60.71 0 -5.82 0 -25.34 0 0 -6.57 -2.68 -3.27 -3.88 -13.03zm171.11 150.34c-0.66,5.02 -1.77,3.78 3.28,3.78 4.06,7.1 6.63,8.2 11.24,16.4l7.95 15.3c0.69,5.96 1.05,7.66 2.19,11.77 0.29,1.03 1.14,4.36 1.55,5.34 3.77,8.98 -1.86,0.31 4.46,6.96l-1.64 19.69 -8.19 26.25c-10.77,21.18 -9.7,19.12 -26.12,36.09 -32.87,31.34 -72.24,26.25 -133.96,26.25l-38.44 0.59c0,-5.92 1.21,-3.87 -5.76,-3.87 -8.51,-0.27 -9.57,-1.04 -15.64,-3.28 -6.55,-2.04 -7.95,-2.42 -12.08,-6.56 -16.88,-6.07 -14.51,-7.04 -26.41,-18.86 -7.61,-7.56 -13.77,-11.45 -15.59,-23.8 -5.7,-7.06 -0.91,-2.31 -4.92,-7.91 -5.92,-8.28 1.37,-3.18 -4.9,-5.23 0,-16.89 -7.09,-30.98 0,-40.68 0.27,-15.41 1.98,-11.54 3.28,-22.75 4.7,-8.02 6.65,-14.13 11.12,-20.61 3.18,-4.62 4.66,-4.78 7.93,-8.63 8.3,-9.78 3.49,-1.93 4.58,-9.03 15.65,-6.91 20.3,-15.88 43.3,-21.66 27.52,-6.91 118.2,-7.76 148.31,0.01 12.59,3.25 13.02,6.58 24.28,7.48l16.4 13.68c0,5.05 -1.24,3.94 3.78,3.28zm-401.99 374.54l4.48 -2.71c11.22,-1.22 4.27,-1.28 5.99,2.71l-2.71 2.99 3.27 3.57c-9.09,5.71 -3.01,-1.79 -10.19,9.75 -1.46,2.34 -4.47,10.28 -5.83,13.22 -5,0 -3.65,-1.2 -3.65,3.98l-12.48 25.55c-5.38,0 -3.93,-1.29 -3.93,4.29 -5.1,7.87 -8.45,16.7 -13.41,25.24l-2.99 3.32 0 6.51c-3.98,1.27 -2.29,-0.26 -6.74,6.17 -1.8,2.59 -4.67,7.41 -6.31,10.31 -5.42,9.6 -6.46,13.48 -13.2,22.25 -5.83,12.31 -8.43,12.77 -13.13,26.89 -6.88,3.65 -10.42,14.62 -16.4,22.23 -5.59,9.59 -11.29,18.53 -16.41,28.63 -7.56,7.65 -12.32,15.88 -16.4,27.23 -4.92,3.56 -6.62,7.41 -10.75,12.8 -3.2,4.18 -3.07,3.3 -5.69,7.34 -4.58,7.05 -3.02,4.73 -6.53,12.67 -4.96,3.59 -3.15,2.75 -6.5,7.11 -9.12,11.86 -20.6,22.16 -26.31,36.2l-37.05 28.85c-6.25,5.61 0.38,-2.08 -5.61,6.59 -11.43,-1.69 -5.83,-0.63 -16.81,3.41 -6.78,2.5 -9.59,3.45 -17.81,5.29 -12.92,2.88 -27.14,1.81 -41.42,1.81l-19.11 -0.37 -4.04 -2.91c-9.43,-0.87 -24.67,-6.15 -31.17,-9.84l-4.16 1.3c-9.1,-10.53 -12.51,-10.27 -23.04,-17.64l-15.49 -14.11c-6.57,-4.57 -1.19,-2.23 -7.41,-2.38 0,-12.8 -4.16,-10.79 -10.96,-21.87l-8.31 -14.42c-3.8,-5.49 -1,-2.03 -3.7,-4.39 -2.39,-13.23 -5.27,-17.96 -8.04,-32.83 -2.47,-13.31 -1.8,-23.5 -1.8,-37.65l-0.25 -10.22c5.27,0 3.53,1.11 3.53,-4.93l3.28 -21.31c4.85,-4.33 6.42,-15.77 18.34,-34.03 4.85,-7.42 4.4,-6.61 7.91,-13.88 5.53,-1.56 0.07,1.56 5.69,-2.39 2.76,-1.94 4.27,-3.77 6.65,-6.19 5.86,-5.94 7.19,-7.87 13.65,-12.43l3.54 -3.41 27.96 -12.99c6.15,0 4.85,1.67 4.85,-4.02 9.46,-1.19 13.15,-3.43 22.08,-5.83 5.22,0 4.17,1.46 4.17,-3.28 8.46,-0.7 3.71,0.68 11.22,-1.9 12.56,-4.31 4.09,-1.6 8.62,-4.66 10.84,-0.92 26.56,-6.71 36.59,-9.19 44.62,-11.02 227.1,-56.43 263.92,-56.43zm381.81 206.48c0,4.85 -1.15,3.51 3.92,3.51l24.12 24.24c0.29,0.33 0.98,1.13 1.49,1.68 2.46,11.08 6.53,15.55 9.24,24.03 3.19,10 3.11,17.06 7.16,25.52l-61.69 0 -5.25 0 -60.95 0 -157.56 0 -3.28 0c4.2,-8.78 1.41,-10.69 6.56,-17.73 0.96,-14.39 4.61,-18.32 9.84,-28.21 4.38,-8.27 2.39,-6.64 8.99,-13.91 7.3,-8.03 5.44,-3.77 10.7,-13.64 12.25,-3.59 7.59,-4.27 18.62,-9.6l46.99 -12.07c57.15,-2.41 14.8,-4.84 88.54,0.06 15.58,1.04 35.52,8.81 49.28,14.11l3.28 2.01zm318.26 36.67c0,-4.92 1.2,-3.63 -3.82,-3.63 -3.62,-8.41 -4.41,-9.05 -9.25,-16.43 -1.44,-2.21 -2.82,-5.01 -5.09,-7.98 -5.82,-7.61 -1.27,-3.69 -9.31,-8.4 -0.83,-13.22 -4.02,-12.16 -12.59,-25.58 -3.52,-5.53 -11.57,-18.32 -13.03,-23.64 -6.3,-9.4 -7.61,-10.61 -12.53,-19.36l-15.76 -26.61c-8,-12.89 -21.4,-42.34 -30.17,-49.69l-13.13 -28.18c0,-5.34 1.4,-4.12 -3.73,-4.12 -6.77,-16.35 0.28,-3.79 -8.41,-9.84 1.26,-12.23 -1.06,-12.4 -7.54,-22.97 10.8,2.52 11.74,3.96 26.24,2.32 5.24,4.3 -0.98,1.08 6.86,3.85 0.12,0.05 7.54,1.96 7.98,2.05 8.64,1.78 8.39,1.66 17.98,1.37 0,5.3 -1.12,3.53 4.98,3.53 13.74,0 9.86,0.23 19.39,3.28 18.42,1.24 171.81,36.04 185.63,42.66 10.48,0.87 9.19,2.52 19.67,2.95 0,5.24 -1.15,3.61 4.66,3.61 12.55,1.27 14.63,5.45 28.34,6.56l23.87 9.85c9.13,2.52 14.39,4.38 23.04,8.68 6.74,3.36 4.15,2.59 10.86,5.66 7.22,3.3 6.1,2.58 10.95,3.71 0.57,0.71 1.49,0.84 1.79,2.07l12.19 11.85c6.13,5.94 9.11,9.12 15.55,15.92 5.32,4.88 10.04,12.27 14.24,19.89 4.16,7.53 8.03,20.15 12.01,25.02 1.62,9.37 3,10.29 3.28,20.68 0,5.67 -1.64,4.64 3.29,4.64l-0.01 34.1c-0.26,9.86 -1.57,11 -3.28,19.21 -1.02,10.9 -4.35,17.44 -8.41,26.87 -3.69,8.57 -2.32,5.12 -5.45,10.86 -4.68,8.58 -3.79,4.81 -5.83,15.26 -4.26,1.75 -1.38,-0.9 -5.62,3.05 -7.07,6.59 -0.35,0.34 -5.62,7.29 -5.85,7.72 -7.08,7.41 -11.73,15.25 -10.26,5.55 -19.62,13.07 -30.83,19.04 -10.54,7.29 -39.36,16.4 -57.77,16.4 -23.16,0 -43.31,1.39 -58.61,-6.56 -8.93,-1.96 -15.44,-4.48 -20.79,-9.84 -15.73,-5.66 -22.88,-13.83 -34.77,-22.97l-30.19 -33.81 -29.53 -44.81 0 -3.06zm-322.07 -328.46c6.05,7.2 9.79,8.04 16.99,13.08 7.43,5.2 8.84,8.37 16.35,12.69 4.86,9.98 6.43,12.01 13.12,20.82 2.29,8.88 3.72,19.6 6.56,27.88 -0.42,3.62 -4.01,21.76 -5.44,25.53 -4.02,10.6 -7.98,10.23 -10.96,21.4 -9.74,6.52 -13.82,12.57 -25.57,20.37 -10.2,6.76 -17.14,12.68 -30.21,15.72 -10.6,5.61 -27.53,10.37 -40.14,12.36 -30.14,4.79 -41.84,4.29 -67.6,-0.01 -7.71,-1.28 -10.26,-2.26 -20.22,-2.59l-4.26 -3.19 -13.73 -2.2 -33.21 -18.79c-5.56,-3.7 -8.94,-5.46 -13.55,-9.42 -6.6,-5.65 -6.68,-7.35 -14,-12.25 -2.97,-11.1 -9.46,-15.1 -12.44,-26.35 -5.32,-20.06 -2.36,-17.9 -0.68,-34.68 3.82,-19.56 15.42,-32.34 28.94,-44.57 0.68,-0.61 2.76,-2.42 3.33,-2.95l3 -3.01c18.14,-8.36 13.06,-10.08 42.46,-20.69 16.54,-5.98 37.15,-8.81 54.27,-11.37 21.58,-3.24 63.88,5.46 83.62,13.31 8.48,3.37 15.48,6.92 23.37,8.91zm-139.04 725.12l-6.11 -15.24c-0.31,-0.57 -0.73,-1.51 -1.05,-2 -3.76,-5.91 -0.68,-1.5 -4.2,-4.09 -1.71,-9.06 -1.12,-7.95 -5.29,-16.28 -2.64,-5.28 -0.93,-2.54 -3.51,-5.94 -3.95,-5.19 -1.07,-1.63 -4.33,-4.03 -1.58,-7.56 -0.47,-6.47 -3.28,-11.48l91.23 0 53.14 0c-2.07,2.48 -2.66,7.99 -3.28,9.83l-13.16 22.98c-5.09,9.87 -8.95,20.81 -13.09,31.71 -5.09,5.83 -6.84,11.94 -10.95,20.29 -4.31,8.77 -6.99,15.66 -14.2,23.47 -4.3,11.1 -9.54,19.68 -14.22,31.16l-6.54 1.83c-2.81,-12.14 -11.31,-29.65 -19.71,-36.91l0 -6.2 -2.68 -3 -18.77 -36.1z"/>
 </g>
</svg>
